# xmcd CD database file
#
# Track frame offsets:
#	183
#	12758
#	30388
#	44880
#	57680
#	66845
#	78660
#	96995
#	106585
#	121938
#	138375
#	152440
#	168663
#	185735
#	198880
#	218305
#	234650
#	255183
#
# Disc length: 3710 seconds
#
# Revision: 10
# Processed by: cddbd v1.5.2PL0 Copyright (c) Steve Scherf et al.
# Submitted via: CDex 1.81
#
DISCID=f00e7c12
DTITLE=Mike Oldfield - The Complete
DYEAR=1985
DGENRE=Instrumental Rock
TTITLE0=Mike Oldfield - Arrival
TTITLE1=Mike Oldfield - William Tell Overture
TTITLE2=Mike Oldfield - Cuckoo Song
TTITLE3=Mike Oldfield - In Dulci Jubilo
TTITLE4=Mike Oldfield - Portsmouth
TTITLE5=Mike Oldfield - Jungle Gardenia
TTITLE6=Mike Oldfield - Guilty
TTITLE7=Mike Oldfield - Blue Peter
TTITLE8=Mike Oldfield - Waldberg (The Peak)
TTITLE9=Mike Oldfield - Wonderful Land
TTITLE10=Mike Oldfield - Etude (Theme from The Killing Fields)
TTITLE11=Mike Oldfield feat. Maggie Reily - Moonlight Shadow
TTITLE12=Mike Oldfield feat. Maggie Reily - Family Man
TTITLE13=Mike Oldfield feat. Maggie Reily - Mistake
TTITLE14=Mike Oldfield feat. Maggie Reily - Five Miles Out
TTITLE15=Mike Oldfield feat. Barry Palmer - Crime of Passion
TTITLE16=Mike Oldfield feat. Maggie Reily - To France
TTITLE17=Mike Oldfield feat. Roger Chapman - Shadow on the Wall
EXTD=YEAR: 1985
EXTT0=
EXTT1=
EXTT2=
EXTT3=
EXTT4=
EXTT5=
EXTT6=
EXTT7=
EXTT8=
EXTT9=
EXTT10=
EXTT11=
EXTT12=
EXTT13=
EXTT14=
EXTT15=
EXTT16=
EXTT17=
PLAYORDER=
